<?xml version="1.0" encoding="UTF-8"?><svg id="a" xmlns="http://www.w3.org/2000/svg" width="24" height="16.3"
  viewBox="0 0 24 16.3">
  <g fill="#f03e2f">
    <path opacity="1" d="m24 2.93v.99l-3.85 5.13c-.05.06-.12.09-.19.09h-3.14c-.19 0-.31-.22-.19-.38l4.35-5.83h3.02z" />
    <path opacity=".7" d="m9.01 9.14-5.39 7.06c-.05.06-.12.1-.19.1h-3.19c-.2 0-.31-.23-.19-.39l5.19-6.77 1.91-2.5 1.86 2.5z" />
    <path opacity=".7" d="m14.16 2.93v13.13c0 .13-.11.24-.24.24h-2.48c-.13 0-.24-.11-.24-.24v-13.13h2.96z" />
    <path opacity=".5" d="m7.15 6.64-1.91 2.5-3.85-5.22 0-3.92.83 0 2.18 2.93 2.75 3.71z" />
    <path opacity="1" d="m14.16 0 0 2.93-9.76 0-2.18-2.93 11.94 0z" />
    <path opacity=".5" d="M15.25 0H24V2.93H15.25Z" />
  </g>
</svg>