<?xml version="1.0" encoding="utf-8"?>
<!-- Generator: Adobe Illustrator 25.4.1, SVG Export Plug-In . SVG Version: 6.00 Build 0)  -->
<svg version="1.1" id="Layer_1" xmlns="http://www.w3.org/2000/svg" xmlns:xlink="http://www.w3.org/1999/xlink" x="0px" y="0px"
	 viewBox="0 0 1733 1733" style="enable-background:new 0 0 1733 1733;" xml:space="preserve">
<style type="text/css">
	.st0{fill:#FFFFFF;}
</style>
<path id="App_Icon_Placeholder_00000143614708499777398520000007972304989823291825_" d="M602.8,0h524.8c174.1,0,261,0,354.7,29.6
	c102.3,37.2,182.8,117.8,220.1,220.1c29.6,93.7,29.6,180.7,29.6,354.7v524.8c0,174,0,261-29.6,354.7
	c-37.2,102.3-117.8,182.8-220.1,220.1c-93.7,29.6-180.7,29.6-354.7,29.6H602.8c-174,0-261,0-354.7-29.6
	C145.8,1666.8,65.2,1586.2,28,1483.9c-29.6-93.7-29.6-180.7-29.6-354.7V604.4c0-174,0-261,29.6-354.7
	C65.2,147.4,145.8,66.8,248.1,29.6C341.8,0,428.7,0,602.8,0L602.8,0"/>
<polygon class="st0" points="188.7,404.7 186.9,467.9 185.1,530.9 183.3,594.1 245.3,677.1 307.2,760.2 369.2,843.2 431.2,926.3 
	349.1,1034 272.2,1135.1 205.2,1223 153.6,1291.1 120.5,1335 102.7,1359 95.4,1369.6 93.4,1373.4 92.8,1375.9 92.6,1378 
	92.9,1380.1 93.7,1382.3 95.3,1384.5 100,1386.6 110.3,1388.7 128.9,1390.2 157.1,1391.3 191.2,1391.9 226.1,1392 256.9,1391.5 
	279.6,1390.6 295.2,1389.3 305.8,1387.6 313.3,1385.5 319.4,1383.2 324.7,1380.5 329.5,1377.4 334.1,1373.9 339.1,1368.8 
	349,1357.1 368.3,1332.3 402.1,1288.5 453.4,1221.3 519.2,1135.1 594.6,1036.1 674.8,930.9 600.3,830.9 525.9,731 451.5,631 
	377.1,531 486.5,530.7 596,530.3 705.4,530 814.9,529.5 815.4,740 815.8,937.3 816.5,1108.1 817.2,1239.6 818.1,1322.6 
	819.2,1366.1 820.4,1383.2 821.7,1386.8 823.1,1388.1 824.7,1389.2 826.6,1390 828.9,1390.7 831.8,1391.2 837.3,1391.7 847,1392 
	862.9,1392 885.9,1392 912.9,1391.9 939.8,1391.5 962.5,1391 978,1390.6 987.2,1390 992.1,1389.3 994.7,1388.5 996.6,1387.7 
	998.2,1386.8 999.6,1385.9 1000.9,1384.8 1002.1,1381.6 1003.1,1365 1004.1,1322.1 1004.9,1239.4 1005.5,1108.4 1005.9,937.7 
	1006.4,740.7 1006.8,530.3 1116.7,530.6 1226.6,530.9 1336.6,531.1 1446.4,531.4 1374.6,625.6 1307.3,714.1 1249.1,790.9 
	1204.6,850.4 1176.9,888.4 1163,908.9 1158.3,917.7 1158.5,920.4 1160.3,921.9 1165.3,923.2 1176.8,924.1 1197.7,924.8 
	1229.5,925.3 1267.7,925.4 1306.3,925.2 1339.2,924.6 1361.9,923.8 1375.6,922.6 1383.2,921.2 1387.6,919.6 1391.1,917.8 
	1394.4,915.7 1397.6,913.2 1400.9,910.4 1405,906.3 1412.5,897.3 1426.7,879 1450.7,847.1 1486.8,798.7 1532.7,736.9 1585.2,665.9 
	1641,590.7 1639.1,528.3 1637.1,466.1 1635.2,403.8 1633.3,341.6 1479.9,341.6 1332.9,341.6 1198.7,341.6 1083.8,341.6 991.4,341.6 
	911.9,341.6 832.4,341.6 739.9,341.6 625.1,341.6 490.9,341.6 343.9,341.6 190.5,341.6 "/>
</svg>
