<?xml version="1.0" encoding="utf-8"?>
<svg version="1.1" id="Layer_1" xmlns="http://www.w3.org/2000/svg" xmlns:xlink="http://www.w3.org/1999/xlink" x="0px" y="0px"
	 viewBox="0 0 1733 1182" style="enable-background:new 0 0 1733 1182;" xml:space="preserve">
<g id="blender_frame_1">
	<g id="blender_object_GPencil">
		<g id="RP_-_Logo_x5F_001_x5F_Fills">
			<polygon points="116.3,79.9 114.3,149.8 112.4,219.6 110.4,289.5 179,381.4 247.5,473.3 316.1,565.2 384.7,657.1 293.9,776.3 
				208.7,888.2 134.6,985.5 77.5,1060.9 40.9,1109.5 21.2,1136 13.1,1147.8 10.9,1152 10.2,1154.7 10,1157.1 10.3,1159.4 
				11.2,1161.8 13,1164.2 18.2,1166.6 29.6,1168.9 50.2,1170.6 81.4,1171.8 119.1,1172.4 157.7,1172.5 191.8,1172 216.9,1171 
				234.2,1169.6 245.9,1167.7 254.2,1165.4 261,1162.8 266.9,1159.8 272.2,1156.4 277.2,1152.5 282.8,1146.9 293.7,1133.9 
				315.1,1106.5 352.5,1058 409.3,983.6 482.1,888.2 565.5,778.7 654.3,662.2 571.9,551.6 489.5,441 407.2,330.3 324.8,219.7 
				445.9,219.3 567.1,218.9 688.2,218.5 809.4,218 809.9,451 810.4,669.3 811.1,858.4 811.9,1003.9 812.9,1095.8 814.1,1143.9 
				815.4,1162.8 816.9,1166.8 818.4,1168.2 820.2,1169.4 822.3,1170.3 824.8,1171.1 828.1,1171.7 834.1,1172.2 844.9,1172.5 
				862.5,1172.6 887.9,1172.6 917.8,1172.4 947.6,1172 972.7,1171.5 989.9,1171 1000.1,1170.3 1005.5,1169.6 1008.3,1168.7 
				1010.4,1167.8 1012.2,1166.8 1013.8,1165.8 1015.2,1164.6 1016.5,1161 1017.7,1142.7 1018.7,1095.2 1019.6,1003.7 1020.3,858.7 
				1020.8,669.8 1021.3,451.7 1021.7,218.9 1143.4,219.2 1265,219.5 1386.7,219.8 1508.3,220.1 1428.8,324.4 1354.3,422.3 
				1289.9,507.3 1240.7,573.1 1210,615.2 1194.6,637.9 1189.4,647.6 1189.6,650.6 1191.6,652.3 1197.2,653.7 1209.9,654.7 
				1233,655.5 1268.2,656 1310.5,656.1 1353.2,655.9 1389.6,655.3 1414.7,654.4 1429.9,653.1 1438.3,651.5 1443.2,649.7 
				1447.1,647.7 1450.7,645.4 1454.3,642.7 1457.9,639.6 1462.4,635 1470.7,625 1486.4,604.8 1513,569.5 1553,515.9 1603.8,447.5 
				1661.9,369 1723.6,285.7 1721.5,216.7 1719.3,147.8 1717.2,78.9 1715.1,10 1545.3,10 1382.6,10 1234.1,10 1107,10 1004.7,10 
				916.7,10 828.7,10 726.4,10 599.3,10 450.8,10 288.1,10 118.3,10 			"/>
		</g>
	</g>
</g>
</svg>
