<?xml version="1.0" standalone="no"?>
<!DOCTYPE svg PUBLIC "-//W3C//DTD SVG 20010904//EN"
 "http://www.w3.org/TR/2001/REC-SVG-20010904/DTD/svg10.dtd">
<svg version="1.0" xmlns="http://www.w3.org/2000/svg"
 width="700.000000pt" height="700.000000pt" viewBox="0 0 700.000000 700.000000"
 preserveAspectRatio="xMidYMid meet">
<metadata>
Created by potrace 1.14, written by Peter Selinger 2001-2017
</metadata>
<g transform="translate(0.000000,700.000000) scale(0.100000,-0.100000)"
fill="#000000" stroke="none">
<path d="M1682 6990 c-302 -16 -580 -67 -752 -139 -322 -134 -600 -398 -754
-715 -92 -190 -143 -411 -166 -726 -13 -181 -13 -3639 0 -3820 37 -510 153
-811 421 -1094 200 -211 436 -350 709 -415 337 -81 405 -83 2490 -78 1548 3
1781 6 1896 20 360 44 574 117 797 270 265 181 484 477 569 766 97 336 107
563 107 2441 0 1701 -9 2005 -70 2287 -65 303 -189 533 -399 743 -235 235
-488 362 -831 419 -269 44 -266 44 -2104 46 -968 2 -1829 -1 -1913 -5z m4918
-1442 c0 -40 7 -266 15 -502 8 -237 11 -435 6 -440 -4 -6 -131 -177 -281 -381
-381 -516 -595 -801 -649 -864 -75 -89 -83 -91 -429 -98 -342 -7 -571 2 -579
22 -2 8 19 49 48 92 53 79 581 782 922 1228 l183 240 -321 6 c-176 3 -573 7
-882 8 l-563 1 -1 -237 c-12 -3106 -13 -3202 -32 -3220 -16 -16 -47 -18 -356
-21 -291 -3 -340 -1 -353 12 -23 22 -27 257 -34 1964 l-7 1502 -878 0 c-484 0
-879 -3 -879 -6 0 -8 -12 8 648 -878 309 -415 541 -735 538 -743 -5 -12 -1003
-1325 -1219 -1603 -155 -200 -184 -222 -304 -240 -83 -12 -620 -12 -722 -1
-78 9 -103 25 -94 60 2 9 77 114 165 232 125 165 1146 1509 1190 1566 7 8
-144 218 -491 683 l-501 671 15 502 c8 276 15 505 15 510 0 4 1312 7 2915 7
l2915 0 0 -72z"/>
</g>
</svg>
