<?xml version="1.0" standalone="no"?>
<!DOCTYPE svg PUBLIC "-//W3C//DTD SVG 20010904//EN"
 "http://www.w3.org/TR/2001/REC-SVG-20010904/DTD/svg10.dtd">
<svg version="1.0" xmlns="http://www.w3.org/2000/svg"
 width="768.000000pt" height="768.000000pt" viewBox="0 0 768.000000 768.000000"
 preserveAspectRatio="xMidYMid meet">
<metadata>
Created by potrace 1.14, written by Peter Selinger 2001-2017
</metadata>
<g transform="translate(0.000000,768.000000) scale(0.100000,-0.100000)"
fill="#000000" stroke="none">
<path d="M445 5822 l0 -628 125 -170 c68 -93 128 -170 132 -172 4 -2 8 -8 8
-14 0 -5 24 -40 53 -77 28 -38 59 -78 67 -91 8 -12 20 -28 25 -34 6 -6 25 -32
43 -58 18 -25 38 -52 45 -60 6 -7 30 -39 51 -70 21 -32 47 -66 57 -77 11 -11
19 -23 19 -26 0 -3 4 -11 10 -18 60 -72 90 -114 90 -123 0 -7 4 -14 8 -16 8
-3 40 -45 255 -338 58 -80 113 -152 122 -161 8 -9 15 -20 15 -26 0 -6 6 -15
13 -21 7 -6 30 -36 51 -66 l38 -55 -139 -182 c-76 -99 -146 -191 -155 -203
-24 -29 -27 -32 -77 -101 -25 -33 -47 -62 -51 -65 -3 -3 -23 -30 -45 -60 -22
-30 -48 -64 -58 -75 -11 -11 -26 -31 -36 -45 -13 -21 -234 -311 -274 -360 -6
-9 -25 -33 -42 -55 -16 -22 -35 -47 -42 -55 -6 -8 -35 -46 -64 -85 -29 -38
-57 -74 -61 -80 -4 -5 -20 -26 -35 -45 -35 -43 -137 -178 -178 -234 -16 -23
-38 -50 -47 -61 -10 -11 -62 -78 -116 -150 -54 -71 -133 -175 -175 -231 -84
-110 -91 -136 -50 -180 l22 -24 541 0 540 0 23 26 c12 15 27 32 32 38 6 6 53
67 105 136 106 140 97 129 145 190 19 25 38 50 43 55 4 6 20 28 36 50 17 22
33 42 36 45 3 3 17 21 30 40 13 19 27 37 30 40 3 3 32 41 65 84 33 43 64 84
70 90 6 6 16 18 21 27 5 9 21 32 36 50 23 29 255 332 325 425 12 16 29 38 38
49 8 11 36 47 61 80 25 33 51 67 57 75 7 9 33 42 57 75 25 33 47 62 50 65 3 3
19 23 35 45 16 22 35 47 42 55 6 8 35 47 64 85 29 39 56 72 61 73 4 2 8 10 8
17 0 8 6 18 13 22 6 4 61 73 122 153 60 80 115 151 121 158 31 31 26 50 -33
129 -32 43 -60 80 -63 83 -3 3 -37 48 -75 100 -38 52 -73 100 -77 105 -5 6
-64 84 -131 175 -67 91 -194 262 -282 380 -88 118 -168 228 -179 245 -10 16
-22 32 -25 35 -4 3 -45 57 -91 120 -46 63 -90 122 -97 130 -8 8 -41 53 -75
100 -34 46 -66 90 -72 97 -26 29 -36 42 -36 47 0 3 -47 67 -104 143 -58 76
-103 139 -101 141 2 2 1896 5 2125 2 l45 0 0 -2112 0 -2113 25 -26 25 -27 410
1 c237 0 422 4 438 9 15 6 32 19 38 29 8 16 12 2198 9 5047 l0 132 -2043 0
-2042 0 0 -628z"/>
<path d="M4880 6403 c0 -27 -2 -59 -3 -73 -2 -14 0 -39 4 -56 3 -18 3 -38 -1
-44 -4 -7 -4 -25 0 -41 5 -15 5 -44 0 -63 -4 -20 -4 -38 1 -41 4 -3 6 -11 4
-18 -9 -23 -11 -82 -4 -113 3 -18 3 -38 -1 -44 -4 -7 -4 -25 0 -41 5 -15 5
-44 0 -63 -4 -20 -4 -38 0 -41 4 -3 5 -20 1 -37 -4 -18 -6 -42 -5 -53 2 -18 3
-41 5 -115 0 -14 1 -30 2 -37 0 -9 217 -12 910 -12 500 0 911 -1 912 -3 2 -2
-95 -136 -216 -298 -121 -162 -228 -306 -237 -319 -9 -13 -22 -28 -27 -35 -6
-6 -28 -36 -50 -66 -22 -30 -43 -59 -48 -65 -18 -23 -207 -277 -268 -361 -37
-50 -73 -97 -80 -105 -8 -8 -30 -37 -49 -64 -19 -28 -40 -57 -47 -65 -7 -8
-37 -49 -67 -90 -30 -41 -58 -80 -63 -85 -4 -6 -21 -28 -38 -50 -16 -22 -35
-46 -42 -53 -7 -8 -18 -22 -23 -32 -5 -10 -39 -57 -75 -104 -72 -96 -83 -137
-44 -172 20 -18 44 -19 553 -19 460 0 534 2 547 15 8 8 48 60 89 115 41 55 80
106 87 113 7 7 13 16 13 20 0 4 10 19 23 34 12 14 30 36 40 47 9 12 17 25 17
30 0 5 4 11 8 13 4 2 55 66 112 143 57 77 107 144 112 150 5 5 54 71 109 145
55 74 107 143 115 153 8 10 32 42 52 70 20 29 39 54 43 57 3 3 30 39 60 80 56
78 76 103 97 125 6 8 12 16 12 20 0 4 6 12 13 19 6 7 21 25 32 40 43 59 195
262 203 271 4 6 8 292 8 638 l0 627 -1397 0 -1398 0 -1 -47z"/>
</g>
</svg>
